<?xml version="1.0" encoding="UTF-8"?>
<svg version="1.1" xmlns="http://www.w3.org/2000/svg" width="94" height="94">
<path d="M0 0 C2.3125 1.625 2.3125 1.625 3.3125 3.625 C4.2715625 4.058125 4.2715625 4.058125 5.25 4.5 C7.7808281 5.88045169 8.20565675 7.01601234 9.3125 9.625 C9.9725 10.615 10.6325 11.605 11.3125 12.625 C11.56 13.305625 11.8075 13.98625 12.0625 14.6875 C13.88043705 17.50530242 16.1800339 17.62261085 19.3125 18.625 C21.4375 20.5 21.4375 20.5 23.3125 22.625 C26.24058771 25.93090548 27.92045285 27.07599411 32.3125 27.625 C36.33021842 28.2730191 39.09305574 30.17542285 42.3125 32.625 C43.02446858 33.93470339 43.69007056 35.2704507 44.3125 36.625 C45.364375 38.295625 45.364375 38.295625 46.4375 40 C49.27774318 45.66976847 49.57069877 52.47467435 48.3125 58.625 C45.83984375 60.4140625 45.83984375 60.4140625 43.3125 61.625 C42.9825 62.305625 42.6525 62.98625 42.3125 63.6875 C40.86738288 66.48741443 39.27580861 66.66843747 36.3125 67.625 C26.19603141 69.03598115 15.75220251 68.74916978 5.5625 68.8125 C4.34369141 68.82555176 3.12488281 68.83860352 1.86914062 68.85205078 C-20.18993118 68.87297402 -20.18993118 68.87297402 -27.6875 62.625 C-30.81755447 57.27120535 -32.50869767 51.84263949 -31.6875 45.625 C-30.32944451 41.92121231 -28.87384345 38.90451517 -26.6875 35.625 C-27.30625 34.635 -27.925 33.645 -28.5625 32.625 C-31.74806635 27.03331439 -33.30290644 21.0867676 -32.6875 14.625 C-32.0275 13.965 -31.3675 13.305 -30.6875 12.625 C-28.58517656 9.7565587 -28.58517656 9.7565587 -27.6875 6.625 C-26.6975 6.295 -25.7075 5.965 -24.6875 5.625 C-24.3575 4.635 -24.0275 3.645 -23.6875 2.625 C-16.29534494 -2.25661183 -8.36141226 -3.11781474 0 0 Z M-15.6875 -0.375 C-15.6875 -0.045 -15.6875 0.285 -15.6875 0.625 C-14.0375 0.625 -12.3875 0.625 -10.6875 0.625 C-10.6875 0.295 -10.6875 -0.035 -10.6875 -0.375 C-12.3375 -0.375 -13.9875 -0.375 -15.6875 -0.375 Z M-8.6875 -0.375 C-8.6875 -0.045 -8.6875 0.285 -8.6875 0.625 C-7.0375 0.625 -5.3875 0.625 -3.6875 0.625 C-3.6875 0.295 -3.6875 -0.035 -3.6875 -0.375 C-5.3375 -0.375 -6.9875 -0.375 -8.6875 -0.375 Z M-31.6875 15.625 C-31.6875 17.275 -31.6875 18.925 -31.6875 20.625 C-31.3575 20.625 -31.0275 20.625 -30.6875 20.625 C-30.6875 18.975 -30.6875 17.325 -30.6875 15.625 C-31.0175 15.625 -31.3475 15.625 -31.6875 15.625 Z M11.3125 15.625 C12.3125 17.625 12.3125 17.625 12.3125 17.625 Z M-17.6875 65.625 C-17.6875 65.955 -17.6875 66.285 -17.6875 66.625 C-14.3875 66.625 -11.0875 66.625 -7.6875 66.625 C-7.6875 66.295 -7.6875 65.965 -7.6875 65.625 C-10.9875 65.625 -14.2875 65.625 -17.6875 65.625 Z M14.3125 65.625 C14.3125 65.955 14.3125 66.285 14.3125 66.625 C21.2425 66.625 28.1725 66.625 35.3125 66.625 C35.3125 66.295 35.3125 65.965 35.3125 65.625 C28.3825 65.625 21.4525 65.625 14.3125 65.625 Z M-6.6875 66.625 C-6.6875 66.955 -6.6875 67.285 -6.6875 67.625 C-2.7275 67.625 1.2325 67.625 5.3125 67.625 C5.3125 67.295 5.3125 66.965 5.3125 66.625 C1.3525 66.625 -2.6075 66.625 -6.6875 66.625 Z " fill="#D2DDDD" transform="translate(38.6875,13.375)"/>
<path d="M0 0 C2.3125 1.625 2.3125 1.625 3.3125 3.625 C4.2715625 4.058125 4.2715625 4.058125 5.25 4.5 C7.7808281 5.88045169 8.20565675 7.01601234 9.3125 9.625 C9.9725 10.615 10.6325 11.605 11.3125 12.625 C11.99427416 13.95067199 12.66441436 15.28253688 13.3125 16.625 C10.59474447 19.34275553 8.91742342 18.91848392 5.125 19.0625 C-2.18741798 19.55375275 -6.88947571 20.35014313 -11.9375 26 C-13.6623389 28.13572984 -14.84676393 29.95076713 -16.0625 32.4375 C-18.61012009 35.86698858 -21.56721271 35.88199737 -25.6875 36.625 C-30.47483575 29.75462503 -33.51020471 23.26339948 -32.6875 14.625 C-32.0275 13.965 -31.3675 13.305 -30.6875 12.625 C-28.58517656 9.7565587 -28.58517656 9.7565587 -27.6875 6.625 C-26.6975 6.295 -25.7075 5.965 -24.6875 5.625 C-24.3575 4.635 -24.0275 3.645 -23.6875 2.625 C-16.29534494 -2.25661183 -8.36141226 -3.11781474 0 0 Z M-15.6875 -0.375 C-15.6875 -0.045 -15.6875 0.285 -15.6875 0.625 C-14.0375 0.625 -12.3875 0.625 -10.6875 0.625 C-10.6875 0.295 -10.6875 -0.035 -10.6875 -0.375 C-12.3375 -0.375 -13.9875 -0.375 -15.6875 -0.375 Z M-8.6875 -0.375 C-8.6875 -0.045 -8.6875 0.285 -8.6875 0.625 C-7.0375 0.625 -5.3875 0.625 -3.6875 0.625 C-3.6875 0.295 -3.6875 -0.035 -3.6875 -0.375 C-5.3375 -0.375 -6.9875 -0.375 -8.6875 -0.375 Z M-31.6875 15.625 C-31.6875 17.275 -31.6875 18.925 -31.6875 20.625 C-31.3575 20.625 -31.0275 20.625 -30.6875 20.625 C-30.6875 18.975 -30.6875 17.325 -30.6875 15.625 C-31.0175 15.625 -31.3475 15.625 -31.6875 15.625 Z " fill="#F7DA4F" transform="translate(38.6875,13.375)"/>
<path d="M0 0 C0.66 0 1.32 0 2 0 C2 0.99 2 1.98 2 3 C4.31 3.66 6.62 4.32 9 5 C9 6.98 9 8.96 9 11 C14.27338776 12.54564814 17.55207119 13.11434907 23 12 C23.55558594 12.16113281 24.11117188 12.32226562 24.68359375 12.48828125 C28.07796637 13.23813422 31.37626066 12.87883116 34.8125 12.625 C35.84213867 12.55925781 35.84213867 12.55925781 36.89257812 12.4921875 C42.6575918 12.09949026 48.4181744 11.56291117 54 10 C53.67 10.66 53.34 11.32 53 12 C55.97 12 58.94 12 62 12 C62 12.66 62 13.32 62 14 C65.48670834 12.8905928 68.77484237 11.73662334 72 10 C72.99 10.99 72.99 10.99 74 12 C73 15 73 15 70.84375 16.1484375 C60.43238583 19.26612622 47.99925178 18.12069212 37.25 18.1875 C36.03119141 18.20055176 34.81238281 18.21360352 33.55664062 18.22705078 C11.49756882 18.24797402 11.49756882 18.24797402 4 12 C1.99429782 8.29992851 0 4.27434188 0 0 Z M14 15 C14 15.33 14 15.66 14 16 C17.3 16 20.6 16 24 16 C24 15.67 24 15.34 24 15 C20.7 15 17.4 15 14 15 Z M46 15 C46 15.33 46 15.66 46 16 C52.93 16 59.86 16 67 16 C67 15.67 67 15.34 67 15 C60.07 15 53.14 15 46 15 Z M25 16 C25 16.33 25 16.66 25 17 C28.96 17 32.92 17 37 17 C37 16.67 37 16.34 37 16 C33.04 16 29.08 16 25 16 Z " fill="#A6B3B5" transform="translate(7,64)"/>
<path d="M0 0 C0.73168029 2.97549984 1.22580593 5.01820373 1 8 C-1 10.5 -1 10.5 -4 12 C-9.98550725 12.50724638 -9.98550725 12.50724638 -13 11 C-13.28780552 7.94926153 -13.42606559 5.04178472 -13 2 C-9.39319581 -1.50072172 -4.56037813 -2.28018907 0 0 Z " fill="#F9E261" transform="translate(32,20)"/>
<path d="M0 0 C2.96013919 2.33695199 3.56807374 4.24383184 4.375 7.875 C3.84132812 7.58625 3.30765625 7.2975 2.7578125 7 C-3.83687746 3.71406452 -9.6013901 2.52763749 -16.82421875 4.46484375 C-22.14521227 6.66418774 -24.56757342 10.14426124 -27.3984375 15.046875 C-27.80320312 15.65015625 -28.20796875 16.2534375 -28.625 16.875 C-29.285 16.875 -29.945 16.875 -30.625 16.875 C-31.285 18.195 -31.945 19.515 -32.625 20.875 C-32.75 18 -32.75 18 -32.625 14.875 C-31.965 14.215 -31.305 13.555 -30.625 12.875 C-28.52267656 10.0065587 -28.52267656 10.0065587 -27.625 6.875 C-26.635 6.545 -25.645 6.215 -24.625 5.875 C-24.295 4.885 -23.965 3.895 -23.625 2.875 C-16.19481519 -2.03172582 -8.49889317 -2.63758754 0 0 Z M-15.625 -0.125 C-15.625 0.205 -15.625 0.535 -15.625 0.875 C-13.975 0.875 -12.325 0.875 -10.625 0.875 C-10.625 0.545 -10.625 0.215 -10.625 -0.125 C-12.275 -0.125 -13.925 -0.125 -15.625 -0.125 Z M-8.625 -0.125 C-8.625 0.205 -8.625 0.535 -8.625 0.875 C-6.975 0.875 -5.325 0.875 -3.625 0.875 C-3.625 0.545 -3.625 0.215 -3.625 -0.125 C-5.275 -0.125 -6.925 -0.125 -8.625 -0.125 Z " fill="#F4E094" transform="translate(38.625,13.125)"/>
<path d="M0 0 C5.75 1.875 5.75 1.875 8 3 C8 4.32 8 5.64 8 7 C9.32 7 10.64 7 12 7 C12 7.99 12 8.98 12 10 C12.99 10 13.98 10 15 10 C14.67 11.32 14.34 12.64 14 14 C11.36 14.66 8.72 15.32 6 16 C2.13095043 10.63187218 0.35544557 6.63498399 0 0 Z " fill="#E7A813" transform="translate(7,34)"/>
<path d="M0 0 C3.37431362 1.23892709 6.69199751 2.59442582 10 4 C9.38461538 9.53846154 9.38461538 9.53846154 7.4375 11.875 C6.7259375 12.431875 6.7259375 12.431875 6 13 C5.01 12.67 4.02 12.34 3 12 C3 11.01 3 10.02 3 9 C1.68 9 0.36 9 -1 9 C-1 7.68 -1 6.36 -1 5 C-3.97 4.505 -3.97 4.505 -7 4 C-7.33 2.68 -7.66 1.36 -8 0 C-4.99552601 -1.502237 -3.28001811 -0.76143278 0 0 Z " fill="#F1C61B" transform="translate(16,32)"/>
<path d="M0 0 C1.32 0.66 2.64 1.32 4 2 C3 5 3 5 0.7824707 6.16162109 C-2.09463216 7.02851337 -4.52133136 7.31356418 -7.51953125 7.4140625 C-9.0519043 7.47207031 -9.0519043 7.47207031 -10.61523438 7.53125 C-11.67033203 7.5621875 -12.72542969 7.593125 -13.8125 7.625 C-14.88693359 7.66367188 -15.96136719 7.70234375 -17.06835938 7.7421875 C-19.71207088 7.83618613 -22.3557805 7.92184573 -25 8 C-24.01 7.34 -23.02 6.68 -22 6 C-25.63 6.33 -29.26 6.66 -33 7 C-33.33 6.34 -33.66 5.68 -34 5 C-29.21241271 4.40338544 -24.49114453 3.93816959 -19.66796875 3.7890625 C-18.76755859 3.76070313 -17.86714844 3.73234375 -16.93945312 3.703125 C-15.08550495 3.6504934 -13.23129723 3.60639425 -11.37695312 3.5703125 C-10.48298828 3.539375 -9.58902344 3.5084375 -8.66796875 3.4765625 C-7.46563599 3.4468335 -7.46563599 3.4468335 -6.23901367 3.41650391 C-3.51462596 2.90971016 -2.07836935 1.78875807 0 0 Z " fill="#828887" transform="translate(77,74)"/>
<path d="M0 0 C0.66 0 1.32 0 2 0 C2 0.99 2 1.98 2 3 C4.31 3.66 6.62 4.32 9 5 C9 6.98 9 8.96 9 11 C10.4540625 11.433125 10.4540625 11.433125 11.9375 11.875 C15 13 15 13 16 15 C12.48410324 16.27850791 11.00514118 16.00189412 7.4375 14.6875 C2.80046517 11.82225795 1.41542288 7.04629027 0 2 C0 1.34 0 0.68 0 0 Z " fill="#A9B6AD" transform="translate(7,64)"/>
<path d="M0 0 C0.98120464 3.05263664 0.98120464 4.94736336 0 8 C1.32 8 2.64 8 4 8 C4 8.66 4 9.32 4 10 C7.63 10 11.26 10 15 10 C15 10.66 15 11.32 15 12 C13.03852126 13.38938077 11.03833424 14.7260411 9 16 C9 15.01 9 14.02 9 13 C8.41992188 12.89042969 7.83984375 12.78085937 7.2421875 12.66796875 C2.40253723 11.6856635 -1.65366116 10.45178089 -6 8 C-2.25 2.25 -2.25 2.25 0 0 Z " fill="#F6D736" transform="translate(17,23)"/>
<path d="M0 0 C0 0.66 0 1.32 0 2 C0.75925781 1.98839844 1.51851562 1.97679688 2.30078125 1.96484375 C3.29464844 1.95582031 4.28851563 1.94679688 5.3125 1.9375 C6.29863281 1.92589844 7.28476562 1.91429688 8.30078125 1.90234375 C11 2 11 2 14 3 C15.56118428 3.06740865 17.1250252 3.08514456 18.6875 3.0625 C19.49574219 3.05347656 20.30398437 3.04445313 21.13671875 3.03515625 C21.75160156 3.02355469 22.36648437 3.01195313 23 3 C19.77604036 5.14930643 18.92152592 5.24843344 15.2109375 5.23046875 C14.26863281 5.22853516 13.32632813 5.22660156 12.35546875 5.22460938 C11.37191406 5.21236328 10.38835938 5.20011719 9.375 5.1875 C8.41464844 5.18685547 7.45429687 5.18621094 6.46484375 5.18554688 C0.57026754 5.14955557 -5.1539854 4.7533524 -11 4 C-8.57489301 0.24108417 -8.57489301 0.24108417 -6.0625 -0.8125 C-3.79631016 -1.01851726 -2.15577438 -0.69292748 0 0 Z " fill="#B3C2C1" transform="translate(32,77)"/>
<path d="M0 0 C2.375 0.75 2.375 0.75 3.375 1.75 C3.41563832 3.41617115 3.417721 5.08388095 3.375 6.75 C-1.08 7.245 -1.08 7.245 -5.625 7.75 C-5.85232116 4.94637237 -5.96581872 3.28813483 -4.4375 0.875 C-2.625 -0.25 -2.625 -0.25 0 0 Z " fill="#FAE591" transform="translate(27.625,21.25)"/>
<path d="M0 0 C0.66 0 1.32 0 2 0 C2.33 2.97 2.66 5.94 3 9 C3.78375 9.268125 4.5675 9.53625 5.375 9.8125 C8 11 8 11 10 14 C8.02 14.99 8.02 14.99 6 16 C2.13095043 10.63187218 0.35544557 6.63498399 0 0 Z " fill="#C46E22" transform="translate(7,34)"/>
<path d="M0 0 C4.34415669 0.48268408 6.21227649 1.65473178 9 5 C12.09819324 9.27336999 12.09819324 9.27336999 11.6875 12.3125 C11.460625 12.869375 11.23375 13.42625 11 14 C10.443125 13.071875 9.88625 12.14375 9.3125 11.1875 C7.01152354 8.0158838 5.29716901 6.92334859 2 5 C2 4.01 2 3.02 2 2 C1.34 1.34 0.68 0.68 0 0 Z " fill="#DCE6EA" transform="translate(72,42)"/>
<path d="M0 0 C0.33 1.32 0.66 2.64 1 4 C2.65 4 4.3 4 6 4 C6 4.66 6 5.32 6 6 C6.99 6 7.98 6 9 6 C9 6.66 9 7.32 9 8 C9.99 8.33 10.98 8.66 12 9 C8.18510326 10.46726798 5.70988378 9.43336419 2 8 C2 7.01 2 6.02 2 5 C1.34 5 0.68 5 0 5 C0 3.35 0 1.7 0 0 Z " fill="#C1D0CA" transform="translate(7,59)"/>
<path d="M0 0 C0.66 0.33 1.32 0.66 2 1 C1.319375 1.45375 0.63875 1.9075 -0.0625 2.375 C-3.54930322 5.49086671 -5.76133359 8.92376637 -8.25390625 12.85546875 C-10.15819 15.19428705 -11.05813389 15.67169547 -14 16 C-10.12571116 9.5281766 -5.92232865 4.67473149 0 0 Z " fill="#F2F2E8" transform="translate(33,33)"/>
<path d="M0 0 C1.44096586 0.42594588 2.87768712 0.86626633 4.3125 1.3125 C5.11300781 1.55613281 5.91351563 1.79976563 6.73828125 2.05078125 C9.09964573 3.04182023 10.33879993 4.08074943 12 6 C9.39517051 6.94721072 7.69325299 7.30222393 5.109375 6.17578125 C3.37417127 5.17063275 1.68359577 4.0893855 0 3 C0 2.01 0 1.02 0 0 Z " fill="#8A9484" transform="translate(11,73)"/>
<path d="M0 0 C0.99 0 1.98 0 3 0 C2.43697042 3.94120709 1.3208055 6.7508723 -1 10 C-1.66 10 -2.32 10 -3 10 C-3.66 11.32 -4.32 12.64 -5 14 C-5.125 11.125 -5.125 11.125 -5 8 C-4.34 7.34 -3.68 6.68 -3 6 C-0.89767656 3.1315587 -0.89767656 3.1315587 0 0 Z " fill="#F3CD79" transform="translate(11,20)"/>
<path d="M0 0 C3.375 0.125 3.375 0.125 7 1 C9 3.375 9 3.375 10 6 C9.67 6.99 9.34 7.98 9 9 C8.0925 8.236875 7.185 7.47375 6.25 6.6875 C3.885444 4.71516893 1.48694058 2.81737966 -1 1 C-0.67 0.67 -0.34 0.34 0 0 Z " fill="#EFF3F5" transform="translate(54,33)"/>
<path d="M0 0 C0.66 0.33 1.32 0.66 2 1 C1.34 2.98 0.68 4.96 0 7 C2.64 6.67 5.28 6.34 8 6 C8 6.99 8 7.98 8 9 C1.9453125 9.1953125 1.9453125 9.1953125 0 9 C-0.66 8.34 -1.32 7.68 -2 7 C-1.43181818 1.43181818 -1.43181818 1.43181818 0 0 Z " fill="#F9E279" transform="translate(22,22)"/>
<path d="M0 0 C2.62187494 1.04874998 3.79371361 1.64931313 5.25 4.125 C5.4975 4.74375 5.745 5.3625 6 6 C3.625 7.0625 3.625 7.0625 1 8 C0.34 7.67 -0.32 7.34 -1 7 C-0.67 4.69 -0.34 2.38 0 0 Z " fill="#E2C468" transform="translate(42,17)"/>
<path d="M0 0 C2.475 0.99 2.475 0.99 5 2 C5 3.65 5 5.3 5 7 C5.99 7.33 6.98 7.66 8 8 C4.25 9.125 4.25 9.125 2 8 C1.3671875 6.15234375 1.3671875 6.15234375 0.875 3.9375 C0.70742188 3.20402344 0.53984375 2.47054688 0.3671875 1.71484375 C0.24601562 1.14894531 0.12484375 0.58304688 0 0 Z " fill="#F6D861" transform="translate(36,17)"/>
<path d="M0 0 C1.9375 0.75 1.9375 0.75 4 2 C4.75 4.125 4.75 4.125 5 6 C2.69 6.33 0.38 6.66 -2 7 C-2 5.35 -2 3.7 -2 2 C-1.34 2 -0.68 2 0 2 C0 1.34 0 0.68 0 0 Z " fill="#E7AE45" transform="translate(47,24)"/>
<path d="M0 0 C0.33 0 0.66 0 1 0 C1 4.62 1 9.24 1 14 C-0.32 14.33 -1.64 14.66 -3 15 C-3 13.35 -3 11.7 -3 10 C-2.34 10 -1.68 10 -1 10 C-0.67 6.7 -0.34 3.4 0 0 Z " fill="#AFBDC0" transform="translate(86,58)"/>
<path d="M0 0 C-0.48210938 0.39832031 -0.96421875 0.79664063 -1.4609375 1.20703125 C-2.40839844 2.00173828 -2.40839844 2.00173828 -3.375 2.8125 C-4.00148438 3.33457031 -4.62796875 3.85664062 -5.2734375 4.39453125 C-7.2221048 6.08225739 -7.2221048 6.08225739 -9 9 C-8.8125 5.6875 -8.8125 5.6875 -8 2 C-4.86024789 -0.64400178 -3.96767419 -1.32255806 0 0 Z " fill="#F2F6F4" transform="translate(18,50)"/>
<path d="M0 0 C4.455 2.97 4.455 2.97 9 6 C8.01 7.485 8.01 7.485 7 9 C5.8225266 8.26708288 4.65823146 7.51296199 3.5 6.75 C2.52546875 6.12351562 2.52546875 6.12351562 1.53125 5.484375 C1.0259375 4.99453125 0.520625 4.5046875 0 4 C0 2.68 0 1.36 0 0 Z " fill="#DB8D0D" transform="translate(10,39)"/>
<path d="M0 0 C2.3125 0.1875 2.3125 0.1875 5 1 C6.875 3.4375 6.875 3.4375 8 6 C7.67 6.66 7.34 7.32 7 8 C5.82512964 7.24172908 4.66027408 6.46792245 3.5 5.6875 C2.52546875 5.04361328 2.52546875 5.04361328 1.53125 4.38671875 C1.0259375 3.92910156 0.520625 3.47148437 0 3 C0 2.01 0 1.02 0 0 Z " fill="#F8CE93" transform="translate(35,13)"/>
<path d="M0 0 C2.375 0.1875 2.375 0.1875 5 1 C6.3125 3.5625 6.3125 3.5625 7 6 C5 6 3 6 1 6 C0.67 4.02 0.34 2.04 0 0 Z " fill="#F1F5F6" transform="translate(66,40)"/>
<path d="M0 0 C-0.66 1.32 -1.32 2.64 -2 4 C-2.99 4 -3.98 4 -5 4 C-5.33 2.68 -5.66 1.36 -6 0 C-3.50907189 -1.24546405 -2.58919267 -0.7767578 0 0 Z " fill="#F0BC2A" transform="translate(14,32)"/>
<path d="M0 0 C0 1.32 0 2.64 0 4 C-1.32 4.33 -2.64 4.66 -4 5 C-4.33 3.68 -4.66 2.36 -5 1 C-3 0 -3 0 0 0 Z " fill="#FAE8A7" transform="translate(28,23)"/>
<path d="M0 0 C2.475 0.495 2.475 0.495 5 1 C5.66 2.98 6.32 4.96 7 7 C4.525 6.01 4.525 6.01 2 5 C2 4.01 2 3.02 2 2 C1.34 1.34 0.68 0.68 0 0 Z " fill="#DBF7F8" transform="translate(72,42)"/>
<path d="M0 0 C0.33 0 0.66 0 1 0 C1 2.64 1 5.28 1 8 C0.67 8 0.34 8 0 8 C0 5.36 0 2.72 0 0 Z " fill="#B1ACAC" transform="translate(88,58)"/>
<path d="M0 0 C0.33 0 0.66 0 1 0 C1 1.98 1 3.96 1 6 C0.67 6 0.34 6 0 6 C0 4.02 0 2.04 0 0 Z " fill="#BFD4BF" transform="translate(5,59)"/>
<path d="M0 0 C0.33 0 0.66 0 1 0 C1 1.98 1 3.96 1 6 C0.67 6 0.34 6 0 6 C0 4.02 0 2.04 0 0 Z " fill="#F09400" transform="translate(6,36)"/>
<path d="M0 0 C0.66 1.32 1.32 2.64 2 4 C1.34 3.67 0.68 3.34 0 3 C0 2.01 0 1.02 0 0 Z " fill="#944C00" transform="translate(7,42)"/>
<path d="M0 0 C1 4 1 4 1 4 Z " fill="#FFFFFF" transform="translate(6,55)"/>
<path d="M0 0 C0 3 0 3 0 3 Z " fill="#BFBFBF" transform="translate(8,52)"/>
<path d="" fill="#B8E2E2" transform="translate(0,0)"/>
<path d="" fill="#E2E2E2" transform="translate(0,0)"/>
<path d="" fill="#E2E2E2" transform="translate(0,0)"/>
<path d="" fill="#3F3F3F" transform="translate(0,0)"/>
<path d="" fill="#AAAAAA" transform="translate(0,0)"/>
<path d="" fill="#9FBFBF" transform="translate(0,0)"/>
<path d="" fill="#BFBFBF" transform="translate(0,0)"/>
<path d="" fill="#7F7F00" transform="translate(0,0)"/>
<path d="" fill="#7F552A" transform="translate(0,0)"/>
<path d="" fill="#FFDF3F" transform="translate(0,0)"/>
<path d="" fill="#7F7F7F" transform="translate(0,0)"/>
<path d="" fill="#BFBFBF" transform="translate(0,0)"/>
<path d="" fill="#BFBFBF" transform="translate(0,0)"/>
<path d="" fill="#55FFFF" transform="translate(0,0)"/>
<path d="" fill="#7FBF7F" transform="translate(0,0)"/>
<path d="" fill="#FFFFFF" transform="translate(0,0)"/>
<path d="" fill="#FFFFFF" transform="translate(0,0)"/>
<path d="" fill="#FFFFFF" transform="translate(0,0)"/>
<path d="" fill="#FFFFFF" transform="translate(0,0)"/>
<path d="" fill="#AA7F55" transform="translate(0,0)"/>
<path d="" fill="#FFFFFF" transform="translate(0,0)"/>
<path d="" fill="#7F3F00" transform="translate(0,0)"/>
<path d="" fill="#AAAAAA" transform="translate(0,0)"/>
<path d="" fill="#FFFFFF" transform="translate(0,0)"/>
<path d="" fill="#FFFFFF" transform="translate(0,0)"/>
<path d="" fill="#FFFFFF" transform="translate(0,0)"/>
<path d="" fill="#FFFFFF" transform="translate(0,0)"/>
<path d="" fill="#FFFF7F" transform="translate(0,0)"/>
<path d="" fill="#FFAA55" transform="translate(0,0)"/>
<path d="" fill="#AAAA55" transform="translate(0,0)"/>
<path d="" fill="#FF7F7F" transform="translate(0,0)"/>
<path d="" fill="#BF7F7F" transform="translate(0,0)"/>
</svg>
