<?xml version="1.0" encoding="UTF-8"?>
<svg version="1.1" xmlns="http://www.w3.org/2000/svg" width="40" height="40">
<path d="M0 0 C10.89 0 21.78 0 33 0 C33 1.32 33 2.64 33 4 C33.99 4 34.98 4 36 4 C36 13.24 36 22.48 36 32 C35.01 32 34.02 32 33 32 C33 33.32 33 34.64 33 36 C22.11 36 11.22 36 0 36 C0 24.12 0 12.24 0 0 Z " fill="#FEC39B" transform="translate(2,2)"/>
<path d="M0 0 C10.89 0 21.78 0 33 0 C32.67 1.32 32.34 2.64 32 4 C32 3.01 32 2.02 32 1 C23.42 1 14.84 1 6 1 C6 12.22 6 23.44 6 35 C14.58 35 23.16 35 32 35 C32.33 33.68 32.66 32.36 33 31 C33 32.65 33 34.3 33 36 C22.11 36 11.22 36 0 36 C0 24.12 0 12.24 0 0 Z " fill="#AE7755" transform="translate(2,2)"/>
<path d="M0 0 C2.4375 1 2.4375 1 4 3 C4.39334036 5.79833568 4.23041197 8.14289157 4 11 C3 12 3 12 0.71484375 12.09765625 C-0.65994141 12.08025391 -0.65994141 12.08025391 -2.0625 12.0625 C-2.98160156 12.05347656 -3.90070312 12.04445313 -4.84765625 12.03515625 C-5.55792969 12.02355469 -6.26820312 12.01195312 -7 12 C-7.04241723 9.66705225 -7.04092937 7.33297433 -7 5 C-6 4 -6 4 -2.9375 3.9375 C-1.4834375 3.9684375 -1.4834375 3.9684375 0 4 C0 6.31 0 8.62 0 11 C0.66 11 1.32 11 2 11 C2.16681109 8.08347826 2.16681109 8.08347826 2 5 C0.05541686 2.6278031 0.05541686 2.6278031 -3.5 2.6875 C-4.655 2.790625 -5.81 2.89375 -7 3 C-9.14915785 6.22373677 -9.38286803 7.26703674 -9 11 C-5.99382731 14.00617269 -3.17618402 13.59585316 1 14 C0.67 14.66 0.34 15.32 0 16 C-6.22222222 16.47863248 -6.22222222 16.47863248 -9.4375 14.5 C-11.63828902 10.97873756 -11.80414661 8.04560357 -11 4 C-8.14969659 -0.56048545 -5.12186168 -0.64023271 0 0 Z " fill="#B17A58" transform="translate(24,13)"/>
<path d="M0 0 C1.32 0 2.64 0 4 0 C4 9.24 4 18.48 4 28 C2.68 27.67 1.36 27.34 0 27 C0 18.09 0 9.18 0 0 Z " fill="#B3B9AC" transform="translate(34,6)"/>
<path d="M0 0 C3.5625 0.3125 3.5625 0.3125 5.5625 1.4375 C7.05922661 4.24386238 6.29544398 6.31409282 5.5625 9.3125 C4.9025 9.3125 4.2425 9.3125 3.5625 9.3125 C3.5625 7.0025 3.5625 4.6925 3.5625 2.3125 C1.5825 2.6425 -0.3975 2.9725 -2.4375 3.3125 C-2.7675 5.6225 -3.0975 7.9325 -3.4375 10.3125 C-2.1175 10.6425 -0.7975 10.9725 0.5625 11.3125 C-1.25 12 -1.25 12 -3.4375 12.3125 C-5.25 11.3125 -5.25 11.3125 -6.4375 9.3125 C-5.97596154 0.54326923 -5.97596154 0.54326923 0 0 Z " fill="#F6BC94" transform="translate(20.4375,14.6875)"/>
<path d="M0 0 C0.99 0 1.98 0 3 0 C3 6.27 3 12.54 3 19 C2.01 18.67 1.02 18.34 0 18 C0.66 18 1.32 18 2 18 C2 15.36 2 12.72 2 10 C1.34 10 0.68 10 0 10 C0 6.7 0 3.4 0 0 Z " fill="#849BCE" transform="translate(35,15)"/>
<path d="M0 0 C0.99 0.33 1.98 0.66 3 1 C2.34 1.556875 1.68 2.11375 1 2.6875 C-1.21703358 4.82982423 -1.21703358 4.82982423 -1.375 7.625 C-1.20984251 10.18227196 -1.20984251 10.18227196 1 12 C3.65537372 12.56520003 6.29144713 12.73788198 9 13 C8.67 13.66 8.34 14.32 8 15 C1.77777778 15.47863248 1.77777778 15.47863248 -1.4375 13.5 C-3.78057502 9.75107996 -3.48773804 7.38964238 -3 3 C-1.5 1 -1.5 1 0 0 Z " fill="#B17958" transform="translate(16,14)"/>
<path d="M0 0 C0.99 0.33 1.98 0.66 3 1 C2.67 3.31 2.34 5.62 2 8 C3.32 8.33 4.64 8.66 6 9 C4.1875 9.6875 4.1875 9.6875 2 10 C0.1875 9 0.1875 9 -1 7 C-0.6875 3.3125 -0.6875 3.3125 0 0 Z " fill="#EEB48D" transform="translate(15,17)"/>
<path d="M0 0 C0.66 0 1.32 0 2 0 C2 1.65 2 3.3 2 5 C0.68 5 -0.64 5 -2 5 C-1.125 1.125 -1.125 1.125 0 0 Z " fill="#F4BA92" transform="translate(20,18)"/>
</svg>
