<?xml version="1.0" encoding="UTF-8"?>
<svg version="1.1" xmlns="http://www.w3.org/2000/svg" width="48" height="48">
<path d="M0 0 C3.86463725 0.41406828 6.12722 2.52621722 9 5 C9.7425 4.154375 10.485 3.30875 11.25 2.4375 C12.1575 1.633125 13.065 0.82875 14 0 C16.3125 0.1875 16.3125 0.1875 18 1 C18.625 2.875 18.625 2.875 19 5 C18.34 5.66 17.68 6.32 17 7 C23.93 7.495 23.93 7.495 31 8 C31 9.98 31 11.96 31 14 C30.34 14 29.68 14 29 14 C29 22.58 29 31.16 29 40 C16.13 40 3.26 40 -10 40 C-10 31.42 -10 22.84 -10 14 C-10.66 14 -11.32 14 -12 14 C-12 12.02 -12 10.04 -12 8 C-6.06 7.505 -6.06 7.505 0 7 C-0.66 6.34 -1.32 5.68 -2 5 C-1.46428571 1.46428571 -1.46428571 1.46428571 0 0 Z " fill="#CE1827" transform="translate(15,3)"/>
<path d="M0 0 C7.26 0 14.52 0 22 0 C22 1.98 22 3.96 22 6 C21.34 6 20.68 6 20 6 C20 14.58 20 23.16 20 32 C13.4 32 6.8 32 0 32 C0 21.44 0 10.88 0 0 Z " fill="#CF1928" transform="translate(24,11)"/>
<path d="M0 0 C3.86463725 0.41406828 6.12722 2.52621722 9 5 C9.7425 4.154375 10.485 3.30875 11.25 2.4375 C12.61125 1.2309375 12.61125 1.2309375 14 0 C16.3125 0.1875 16.3125 0.1875 18 1 C18.6875 2.8125 18.6875 2.8125 19 5 C18 6.75 18 6.75 16 8 C13.69 8 11.38 8 9 8 C9 18.56 9 29.12 9 40 C7.35 40 5.7 40 4 40 C4 29.44 4 18.88 4 8 C2.68 7.67 1.36 7.34 0 7 C-0.66 6.34 -1.32 5.68 -2 5 C-1.46428571 1.46428571 -1.46428571 1.46428571 0 0 Z " fill="#ECBD00" transform="translate(15,3)"/>
<path d="M0 0 C2.31 0 4.62 0 7 0 C7 8.58 7 17.16 7 26 C4.69 26 2.38 26 0 26 C0 17.42 0 8.84 0 0 Z " fill="#B31522" transform="translate(37,17)"/>
<path d="M0 0 C7.26 0 14.52 0 22 0 C22 1.98 22 3.96 22 6 C14.74 6 7.48 6 0 6 C0 4.02 0 2.04 0 0 Z " fill="#EB6773" transform="translate(24,11)"/>
<path d="M0 0 C5.28 0 10.56 0 16 0 C16 1.98 16 3.96 16 6 C10.72 6 5.44 6 0 6 C0 4.02 0 2.04 0 0 Z " fill="#EB6773" transform="translate(3,11)"/>
<path d="M0 0 C3.79450934 0.39253545 5.51015791 2.24338912 8 5 C7.67 5.99 7.34 6.98 7 8 C1.56193353 8.36253776 1.56193353 8.36253776 -0.9375 6.75 C-2 5 -2 5 -1.75 2.875 C-1 1 -1 1 0 0 Z " fill="#E2A500" transform="translate(15,3)"/>
<path d="M0 0 C2.31 0 4.62 0 7 0 C7 1.98 7 3.96 7 6 C4.69 6 2.38 6 0 6 C0 4.02 0 2.04 0 0 Z " fill="#D8404E" transform="translate(39,11)"/>
</svg>
