<?xml version="1.0" encoding="UTF-8"?>
<svg version="1.1" xmlns="http://www.w3.org/2000/svg" width="48" height="48">
<path d="M0 0 C0.99 0 1.98 0 3 0 C3 0.66 3 1.32 3 2 C4.32 2 5.64 2 7 2 C7 1.34 7 0.68 7 0 C7.99 0 8.98 0 10 0 C10 0.66 10 1.32 10 2 C11.32 2 12.64 2 14 2 C14 1.34 14 0.68 14 0 C14.99 0 15.98 0 17 0 C17 0.66 17 1.32 17 2 C18.32 2 19.64 2 21 2 C21 1.34 21 0.68 21 0 C21.99 0 22.98 0 24 0 C24 0.66 24 1.32 24 2 C24.99 2 25.98 2 27 2 C27 14.21 27 26.42 27 39 C17.1 39 7.2 39 -3 39 C-3 26.79 -3 14.58 -3 2 C-2.01 2 -1.02 2 0 2 C0 1.34 0 0.68 0 0 Z " fill="#59BDDB" transform="translate(12,4)"/>
<path d="M0 0 C9.9 0 19.8 0 30 0 C30 1.32 30 2.64 30 4 C20.1 4 10.2 4 0 4 C0 2.68 0 1.36 0 0 Z " fill="#A35B29" transform="translate(9,39)"/>
<path d="M0 0 C9.9 0 19.8 0 30 0 C29.67 0.99 29.34 1.98 29 3 C19.76 3 10.52 3 1 3 C0.67 2.01 0.34 1.02 0 0 Z " fill="#E8E8E7" transform="translate(9,37)"/>
<path d="M0 0 C7.26 0 14.52 0 22 0 C22 0.99 22 1.98 22 3 C14.74 3 7.48 3 0 3 C0 2.01 0 1.02 0 0 Z " fill="#057093" transform="translate(13,28)"/>
<path d="M0 0 C7.26 0 14.52 0 22 0 C22 0.99 22 1.98 22 3 C14.74 3 7.48 3 0 3 C0 2.01 0 1.02 0 0 Z " fill="#057093" transform="translate(13,22)"/>
<path d="M0 0 C7.26 0 14.52 0 22 0 C22 0.99 22 1.98 22 3 C14.74 3 7.48 3 0 3 C0 2.01 0 1.02 0 0 Z " fill="#057093" transform="translate(13,16)"/>
</svg>
