<?xml version="1.0" encoding="UTF-8"?>
<svg version="1.1" xmlns="http://www.w3.org/2000/svg" width="32" height="32">
<path d="M0 0 C0.33 0 0.66 0 1 0 C1 7.92 1 15.84 1 24 C-1.31 22.02 -3.62 20.04 -6 18 C-7.32 17.67 -8.64 17.34 -10 17 C-10 13.7 -10 10.4 -10 7 C-8.9171875 6.6596875 -8.9171875 6.6596875 -7.8125 6.3125 C-4.47197883 4.75359012 -2.5175932 2.65745948 0 0 Z M-8 9 C-8 10.98 -8 12.96 -8 15 C-5.69 15.66 -3.38 16.32 -1 17 C-1 13.7 -1 10.4 -1 7 C-3.35287614 7 -5.79373224 8.24893012 -8 9 Z " fill="#FFFFFF" transform="translate(14,4)"/>
<path d="M0 0 C1.32 0.66 2.64 1.32 4 2 C4 5.3 4 8.6 4 12 C2.02 12.99 2.02 12.99 0 14 C-1.5 13 -1.5 13 -3 11 C-3.44286739 8.27466223 -3.44286739 5.72533777 -3 3 C-1.5 1 -1.5 1 0 0 Z M0 4 C0 5.98 0 7.96 0 10 C0.33 10 0.66 10 1 10 C1 8.02 1 6.04 1 4 C0.67 4 0.34 4 0 4 Z " fill="#FFFFFF" transform="translate(20,9)"/>
</svg>
